<svg id="blueTwitter" xmlns="http://www.w3.org/2000/svg" width="30.6" height="26.582" viewBox="0 0 30.6 26.582">
  <path id="Path" d="M9.624,26.582c11.547,0,17.863-10.228,17.863-19.1,0-.291,0-.581-.018-.869A13.277,13.277,0,0,0,30.6,3.142,11.88,11.88,0,0,1,27,4.2,6.683,6.683,0,0,0,29.756.486a12.1,12.1,0,0,1-3.987,1.629,6,6,0,0,0-8.883-.291,7.021,7.021,0,0,0-1.816,6.414A17.473,17.473,0,0,1,2.13,1.225a7,7,0,0,0,1.945,8.959,5.927,5.927,0,0,1-2.85-.839V9.43a6.621,6.621,0,0,0,5.037,6.579,5.855,5.855,0,0,1-2.834.114,6.351,6.351,0,0,0,5.865,4.662,12.088,12.088,0,0,1-7.8,2.879A12.05,12.05,0,0,1,0,23.567a16.952,16.952,0,0,0,9.624,3.01" transform="translate(0 0)" fill="#05bae4"/>
</svg>
