<svg id="icons8-sell-stock" xmlns="http://www.w3.org/2000/svg" width="38.499" height="33.25" viewBox="0 0 38.499 33.25">
  <path id="Path" d="M37.572,6.379A3.5,3.5,0,0,0,35,5.25H7.481L7.289,3.8A4.389,4.389,0,0,0,2.952,0H1.75a1.75,1.75,0,0,0,0,3.5h1.2a.879.879,0,0,1,.868.76L6.51,24.434a6.141,6.141,0,0,0,6.069,5.316H31.124a6.16,6.16,0,0,0,6.1-5.616l1.26-15.1A3.515,3.515,0,0,0,37.572,6.379Z" fill="#b7b1d5" opacity="0.35"/>
  <circle id="Oval" cx="3.5" cy="3.5" r="3.5" transform="translate(10.5 26.25)" fill="#b7b1d5"/>
  <circle id="Oval-2" data-name="Oval" cx="3.5" cy="3.5" r="3.5" transform="translate(26.25 26.25)" fill="#b7b1d5"/>
  <path id="Path-2" data-name="Path" d="M10.5,0H1.75a1.75,1.75,0,0,0,0,3.5H10.5a1.75,1.75,0,0,0,0-3.5Z" transform="translate(15.75 10.5)" fill="#b7b1d5"/>
</svg>
