<?xml version="1.0" standalone="no"?>
<!DOCTYPE svg PUBLIC "-//W3C//DTD SVG 20010904//EN"
 "http://www.w3.org/TR/2001/REC-SVG-20010904/DTD/svg10.dtd">
<svg version="1.0" xmlns="http://www.w3.org/2000/svg"
 width="479.000000pt" height="376.000000pt" viewBox="0 0 479.000000 376.000000"
 preserveAspectRatio="xMidYMid meet">
<metadata>
Created by potrace 1.16, written by Peter Selinger 2001-2019
</metadata>
<g transform="translate(0.000000,376.000000) scale(0.100000,-0.100000)"
fill="#000000" stroke="none">
<path d="M400 3750 c-152 -7 -272 -20 -360 -38 l-35 -8 -3 -1852 -2 -1852
2315 0 2315 0 24 39 c14 22 28 51 32 65 3 15 10 29 15 32 5 3 9 16 9 29 0 13
5 27 10 30 6 3 10 22 10 41 0 22 6 37 15 40 12 5 15 25 15 94 0 69 3 89 15 94
13 5 15 197 15 1651 l0 1645 -2112 -2 c-1162 -1 -2187 -4 -2278 -8z m3885 -40
c-110 -9 -203 -28 -229 -46 -10 -7 -30 -32 -43 -56 -23 -40 -24 -49 -18 -129
6 -85 6 -86 -20 -103 -27 -18 -55 -71 -55 -103 0 -10 16 -29 35 -43 38 -28 44
-40 18 -40 -33 -1 -51 -25 -56 -74 -3 -27 -10 -53 -16 -59 -6 -6 -11 -30 -11
-53 0 -62 -11 -104 -26 -104 -11 0 -14 -36 -14 -191 l0 -192 -82 6 c-46 4
-136 7 -200 7 l-118 0 0 120 c0 66 -4 120 -8 120 -5 0 -12 52 -15 116 -4 64
-10 121 -15 128 -5 6 -13 28 -16 50 -4 21 -11 46 -16 55 -4 9 -29 60 -55 114
-38 80 -60 112 -123 176 -202 203 -426 261 -1018 261 -134 0 -244 3 -244 7 0
3 7 15 17 25 16 17 64 18 1217 17 661 -1 1160 -5 1111 -9z m401 -593 c-148
-138 -299 -237 -361 -237 -32 0 -68 35 -86 83 -7 21 -18 36 -24 34 -19 -6 -59
-100 -63 -152 -5 -57 14 -107 47 -125 76 -40 199 25 426 228 l90 80 6 -62 c4
-33 7 -98 8 -143 1 -87 7 -116 22 -107 6 3 9 -42 7 -112 l-3 -118 -60 -24
c-33 -13 -154 -66 -270 -117 -273 -121 -431 -175 -513 -175 l-62 0 0 65 0 64
66 21 c88 27 284 110 284 120 0 4 -40 37 -89 73 -95 72 -143 121 -168 173 -16
32 -16 33 16 70 35 39 46 61 86 170 26 72 49 101 130 159 55 41 85 75 85 97 0
18 7 19 123 13 105 -6 133 -4 202 14 44 12 100 34 125 49 l45 28 3 -49 3 -50
-75 -70z m72 -912 c-3 -249 -4 -251 -69 -261 -33 -6 -35 -4 -49 33 -38 98 -93
196 -144 257 l-57 66 28 10 c15 6 37 15 48 20 45 22 231 99 238 100 4 0 7
-101 5 -225z m-2543 -651 c28 -51 107 -118 192 -159 83 -42 184 -56 247 -35
34 11 38 10 56 -13 14 -17 36 -28 78 -36 62 -12 79 -24 106 -79 11 -21 31 -39
54 -49 20 -8 39 -17 40 -18 11 -10 -59 -113 -102 -151 -27 -25 -47 -46 -45
-48 2 -2 35 -13 73 -26 57 -19 92 -23 215 -24 159 -1 216 9 316 54 71 32 99
61 125 126 l19 49 1 -42 c0 -85 -36 -128 -158 -185 -134 -63 -223 -81 -372
-75 -134 6 -169 14 -370 87 -63 23 -185 59 -270 81 -226 58 -285 82 -346 143
-73 72 -87 139 -45 213 9 17 10 17 11 -2 2 -55 6 -73 14 -67 5 3 7 -1 4 -10
-4 -8 -2 -21 4 -29 8 -11 8 -10 4 5 -5 13 4 9 31 -15 33 -30 224 -115 321
-144 l24 -7 -8 82 -7 82 23 -12 c13 -7 32 -21 43 -31 10 -9 60 -39 111 -64 79
-41 97 -46 135 -42 57 6 74 28 68 85 -4 38 -29 82 -47 82 -3 0 -14 -15 -23
-34 -36 -77 -83 -59 -380 139 -95 63 -136 106 -162 168 -20 47 -6 48 20 1z
m-284 -153 c23 -23 29 -38 29 -71 0 -91 -106 -135 -171 -71 -23 23 -29 38 -29
71 0 33 6 48 29 71 23 23 38 29 71 29 33 0 48 -6 71 -29z m1538 -126 c41 -21
71 -62 71 -97 0 -63 -77 -103 -223 -115 -55 -5 -75 -12 -104 -34 -40 -32 -61
-36 -69 -14 -7 16 14 75 25 75 4 0 15 14 25 31 13 22 19 58 22 127 3 53 6 102
9 109 4 11 176 -46 244 -82z m850 -187 l51 -46 -4 -59 c-2 -32 -14 -79 -25
-105 -11 -27 -17 -48 -13 -48 5 0 21 -36 37 -79 l30 -80 22 21 c13 12 23 26
23 32 0 6 -7 2 -15 -8 -14 -18 -15 -18 -26 10 -7 16 -12 32 -11 37 1 4 -2 7
-7 7 -13 0 -11 119 3 151 14 33 25 27 48 -23 10 -21 22 -38 28 -38 5 0 17 -11
25 -24 12 -18 13 -29 5 -52 l-11 -29 27 27 c34 34 28 59 -29 124 -61 70 -76
94 -38 59 18 -16 69 -76 112 -133 l79 -103 -19 -27 c-21 -30 -57 -63 -116
-107 -22 -17 -45 -34 -52 -40 -7 -5 -18 -15 -25 -20 -7 -6 -56 -44 -108 -86
-96 -75 -281 -192 -355 -224 -133 -56 -446 -155 -490 -155 -9 0 -15 10 -15 25
0 20 5 25 24 25 83 0 580 239 561 270 -3 4 2 11 11 14 10 4 13 2 7 -7 -4 -6
22 9 57 34 35 25 66 51 68 57 2 6 -22 19 -55 28 -64 18 -163 60 -163 68 0 3 9
20 20 38 11 18 20 47 20 63 0 42 24 83 70 123 22 18 40 42 40 52 0 19 10 24
70 34 43 7 106 44 94 56 -5 4 -20 11 -34 15 -19 5 -21 4 -10 -4 11 -8 3 -10
-35 -10 -40 1 -45 3 -25 9 14 4 20 8 13 9 -18 2 -88 71 -71 71 8 0 19 -5 25
-11 19 -19 10 17 -10 39 -15 17 -15 19 2 34 16 14 112 38 132 34 3 0 29 -22
58 -48z m-585 -671 c13 -10 35 -10 92 -3 56 7 78 6 87 -3 16 -16 -7 -31 -50
-31 -20 0 -70 -20 -126 -50 -87 -47 -194 -89 -226 -90 -18 0 170 186 190 188
8 1 23 -4 33 -11z"/>
<path d="M4327 907 c-15 -29 -51 -83 -79 -122 -64 -84 -91 -94 -135 -45 l-28
31 -7 -28 c-18 -64 15 -123 68 -123 26 0 40 9 74 48 54 61 101 142 94 164 -3
9 7 40 21 68 15 29 25 54 23 55 -2 2 -16 -20 -31 -48z"/>
</g>
</svg>
