<?xml version="1.0" standalone="no"?>
<!DOCTYPE svg PUBLIC "-//W3C//DTD SVG 20010904//EN"
 "http://www.w3.org/TR/2001/REC-SVG-20010904/DTD/svg10.dtd">
<svg version="1.0" xmlns="http://www.w3.org/2000/svg"
 width="478.000000pt" height="302.000000pt" viewBox="0 0 478.000000 302.000000"
 preserveAspectRatio="xMidYMid meet">
<metadata>
Created by potrace 1.16, written by Peter Selinger 2001-2019
</metadata>
<g transform="translate(0.000000,302.000000) scale(0.100000,-0.100000)"
fill="#000000" stroke="none">
<path d="M0 1510 l0 -1510 2335 0 c1550 0 2335 3 2335 10 0 6 13 10 28 10 49
0 52 12 52 176 0 122 3 154 15 164 13 11 15 150 15 1140 0 990 -2 1129 -15
1140 -10 8 -15 31 -15 66 0 29 -4 56 -10 59 -5 3 -10 24 -10 45 0 21 -4 42
-10 45 -5 3 -10 17 -10 31 0 13 -4 24 -9 24 -5 0 -11 14 -15 32 -3 18 -13 42
-21 55 l-15 23 -2325 0 -2325 0 0 -1510z m4104 1476 c59 -25 79 -65 84 -176 6
-133 -8 -550 -19 -550 -5 0 -9 8 -9 18 0 46 -34 85 -122 141 -49 31 -119 80
-156 109 -37 29 -106 72 -153 96 -48 24 -129 71 -181 103 -85 54 -100 60 -166
66 -69 7 -79 11 -220 99 -81 50 -151 95 -156 100 -6 4 232 8 527 8 436 0 544
-3 571 -14z m485 -1390 c8 -9 11 -70 9 -197 l-3 -184 -619 -3 c-449 -1 -623 1
-632 9 -22 18 -20 352 2 373 14 14 84 16 623 16 505 0 610 -2 620 -14z"/>
</g>
</svg>
