<svg xmlns="http://www.w3.org/2000/svg" xmlns:xlink="http://www.w3.org/1999/xlink" width="541.8" height="424.4" viewBox="0 0 541.8 424.4">
  <defs>
    <filter id="Rectangle" x="38.2" y="0" width="503.6" height="424.4" filterUnits="userSpaceOnUse">
      <feOffset dy="19" input="SourceAlpha"/>
      <feGaussianBlur stdDeviation="27" result="blur"/>
      <feFlood flood-color="#06050e" flood-opacity="0.357"/>
      <feComposite operator="in" in2="blur"/>
      <feComposite in="SourceGraphic"/>
    </filter>
    <clipPath id="clip-path">
      <rect id="Mask" width="180" height="153.6" rx="4.8" fill="#251f46"/>
    </clipPath>
  </defs>
  <g id="Group_2" data-name="Group 2" transform="translate(0 62)">
    <g transform="matrix(1, 0, 0, 1, 0, -62)" filter="url(#Rectangle)">
      <rect id="Rectangle-2" data-name="Rectangle" width="341.6" height="262.4" rx="6.4" transform="translate(119.2 62)" fill="#2d284b"/>
    </g>
    <path id="Path" d="M0,6.4A6.4,6.4,0,0,1,6.4,0h84V262.4H6.4A6.4,6.4,0,0,1,0,256Z" transform="translate(104)" fill="#120e26"/>
    <rect id="Rectangle-3" data-name="Rectangle" width="152.8" height="38.4" rx="6.4" transform="translate(0 60.8)" fill="#2d284b"/>
    <path id="Shape" d="M11.993,16.8H10.939a.4.4,0,0,1-.394-.47l.58-3.264h-5.6l-.6,3.4a.4.4,0,0,1-.394.33H3.472a.4.4,0,0,1-.394-.47l.58-3.264H.4A.4.4,0,0,1,.006,12.6l.186-1.067A.4.4,0,0,1,.587,11.2h3.4l.989-5.6H1.716a.4.4,0,0,1-.394-.469l.186-1.067A.4.4,0,0,1,1.9,3.733H5.3L5.9.33A.4.4,0,0,1,6.3,0H7.352a.4.4,0,0,1,.394.47l-.58,3.263h5.6l.6-3.4A.4.4,0,0,1,13.765,0h1.054a.4.4,0,0,1,.394.47l-.58,3.263H17.89a.4.4,0,0,1,.394.469L18.1,5.269A.4.4,0,0,1,17.7,5.6h-3.4l-.989,5.6h3.257a.4.4,0,0,1,.394.469l-.186,1.067a.4.4,0,0,1-.394.33h-3.4l-.6,3.4A.4.4,0,0,1,11.993,16.8ZM6.84,5.6l-.989,5.6h5.6l.99-5.6H6.84Z" transform="translate(11.543 72.4)" fill="#a5a1c4"/>
    <rect id="Rectangle-4" data-name="Rectangle" width="142.4" height="32" rx="6.4" transform="translate(25.6 14.4)" fill="#2d284b"/>
    <path id="Shape-2" data-name="Shape" d="M10.22,14.4H9.433a.4.4,0,0,1-.393-.47L9.524,11.2h-4.8l-.509,2.87a.4.4,0,0,1-.394.33H3.033a.4.4,0,0,1-.393-.47L3.124,11.2H.4a.4.4,0,0,1-.394-.469l.14-.8A.4.4,0,0,1,.54,9.6H3.4l.848-4.8H1.528a.4.4,0,0,1-.394-.469l.14-.8a.4.4,0,0,1,.393-.33H4.532L5.042.33A.4.4,0,0,1,5.435,0h.787a.4.4,0,0,1,.394.47L6.132,3.2h4.8L11.442.33A.4.4,0,0,1,11.835,0h.788a.4.4,0,0,1,.394.47L12.532,3.2h2.724a.4.4,0,0,1,.394.469l-.14.8a.4.4,0,0,1-.394.33H12.252L11.4,9.6h2.724a.4.4,0,0,1,.393.469l-.139.8a.4.4,0,0,1-.394.33H11.124l-.509,2.87A.4.4,0,0,1,10.22,14.4ZM5.853,4.8,5,9.6H9.8l.848-4.8h-4.8Z" transform="translate(33.676 23.2)" fill="#a5a1c4"/>
    <rect id="Rectangle-5" data-name="Rectangle" width="142.4" height="32" rx="6.4" transform="translate(25.6 113.6)" fill="#2d284b"/>
    <path id="Shape-3" data-name="Shape" d="M10.22,14.4H9.433a.4.4,0,0,1-.393-.47L9.524,11.2h-4.8l-.509,2.87a.4.4,0,0,1-.394.33H3.033a.4.4,0,0,1-.393-.47L3.124,11.2H.4a.4.4,0,0,1-.394-.468l.14-.8A.4.4,0,0,1,.54,9.6H3.4l.848-4.8H1.528a.4.4,0,0,1-.394-.469l.14-.8A.4.4,0,0,1,1.668,3.2H4.532L5.042.33A.4.4,0,0,1,5.435,0h.787a.4.4,0,0,1,.394.47L6.132,3.2h4.8L11.442.33A.4.4,0,0,1,11.835,0h.788a.4.4,0,0,1,.394.47L12.532,3.2h2.724a.4.4,0,0,1,.394.468l-.14.8a.4.4,0,0,1-.394.331H12.252L11.4,9.6h2.724a.4.4,0,0,1,.393.469l-.139.8a.4.4,0,0,1-.394.331H11.124l-.509,2.87A.4.4,0,0,1,10.22,14.4ZM5.853,4.8,5,9.6H9.8l.848-4.8h-4.8Z" transform="translate(33.676 122.4)" fill="#a5a1c4"/>
    <rect id="Rectangle-6" data-name="Rectangle" width="142.4" height="32" rx="6.4" transform="translate(36 160)" fill="#2d284b"/>
    <rect id="Rectangle_Copy_2" data-name="Rectangle Copy 2" width="142.4" height="32" rx="6.4" transform="translate(36 206.4)" fill="#2d284b"/>
    <path id="Shape-4" data-name="Shape" d="M10.22,14.4H9.433a.4.4,0,0,1-.393-.47L9.524,11.2h-4.8l-.509,2.87a.4.4,0,0,1-.394.33H3.033a.4.4,0,0,1-.393-.47L3.124,11.2H.4a.4.4,0,0,1-.394-.468l.14-.8A.4.4,0,0,1,.54,9.6H3.4l.848-4.8H1.528a.4.4,0,0,1-.394-.469l.14-.8A.4.4,0,0,1,1.668,3.2H4.532L5.042.33A.4.4,0,0,1,5.435,0h.787a.4.4,0,0,1,.394.47L6.132,3.2h4.8L11.442.33A.4.4,0,0,1,11.835,0h.788a.4.4,0,0,1,.394.47L12.532,3.2h2.724a.4.4,0,0,1,.394.468l-.14.8a.4.4,0,0,1-.394.331H12.252L11.4,9.6h2.724a.4.4,0,0,1,.393.469l-.139.8a.4.4,0,0,1-.394.331H11.124l-.509,2.87A.4.4,0,0,1,10.22,14.4ZM5.853,4.8,5,9.6H9.8l.848-4.8h-4.8Z" transform="translate(44.076 168.8)" fill="#a5a1c4"/>
    <path id="Shape_Copy" data-name="Shape Copy" d="M10.22,14.4H9.433a.4.4,0,0,1-.393-.47L9.524,11.2h-4.8l-.509,2.87a.4.4,0,0,1-.394.33H3.033a.4.4,0,0,1-.393-.47L3.124,11.2H.4a.4.4,0,0,1-.394-.468l.14-.8A.4.4,0,0,1,.54,9.6H3.4l.848-4.8H1.528a.4.4,0,0,1-.394-.469l.14-.8A.4.4,0,0,1,1.668,3.2H4.532L5.042.33A.4.4,0,0,1,5.435,0h.787a.4.4,0,0,1,.394.47L6.132,3.2h4.8L11.442.33A.4.4,0,0,1,11.835,0h.788a.4.4,0,0,1,.394.47L12.532,3.2h2.724a.4.4,0,0,1,.394.468l-.14.8a.4.4,0,0,1-.394.331H12.252L11.4,9.6h2.724a.4.4,0,0,1,.393.469l-.139.8a.4.4,0,0,1-.394.331H11.124l-.509,2.87A.4.4,0,0,1,10.22,14.4ZM5.853,4.8,5,9.6H9.8l.848-4.8h-4.8Z" transform="translate(44.076 215.2)" fill="#a5a1c4"/>
    <circle id="Oval" cx="16" cy="16" r="16" transform="translate(213.6 60)" fill="#413b65"/>
    <g id="Rectangle-7" data-name="Rectangle" transform="translate(258.4 85.6)">
      <rect id="Mask-2" data-name="Mask" width="180" height="153.6" rx="4.8" fill="#251f46"/>
      <g id="Rectangle-8" data-name="Rectangle" clip-path="url(#clip-path)">
        <rect id="Rectangle-9" data-name="Rectangle" width="5.6" height="153.6" fill="#ff5d86"/>
      </g>
    </g>
    <text id="Kith" transform="translate(258.4 76.4)" fill="#fff" font-size="12.8" font-family="SegoeUI, Segoe UI"><tspan x="0" y="0">Kith</tspan></text>
    <path id="Shape-5" data-name="Shape" d="M6.254,13.556l-.831-1.519,4.245.044,2.147-3.743.824,1.507L10.486,13.6ZM5.921,11.21,4.7,8.977l3.282.035L9.65,6.1l1.222,2.233L9.2,11.246ZM2.079,8.95,0,5.152,2.147,1.391l1.7.022L1.684,5.18,3.757,8.967Zm2.165-.817L2.632,5.187,4.3,2.275,6.788,2.3,5.119,5.213,6.731,8.162Zm5.5-3.588L6.46,4.509l1.265-2.2,3.282.028L12.62,5.282,11.353,7.49Zm1.71-3.011L7.231,1.49,8.089,0l4.232.044,2.079,3.8-.863,1.5Z" transform="translate(222.4 69.6)" fill="#ff5d86"/>
    <text id="shopify-filtered" transform="translate(36.8 88.8)" fill="#fff" font-size="14.4" font-family="SegoeUI, Segoe UI"><tspan x="0" y="0">shopify-filtered</tspan></text>
    <text id="twitter-fast" transform="translate(60 39.2)" fill="#a5a1c4" font-size="14.4" font-family="SegoeUI, Segoe UI"><tspan x="0" y="0">twitter-fast</tspan></text>
    <text id="supreme-us" transform="translate(60 139.2)" fill="#a5a1c4" font-size="14.4" font-family="SegoeUI, Segoe UI"><tspan x="0" y="0">supreme-us</tspan></text>
    <text id="aio-filtered" transform="translate(70.4 185.6)" fill="#a5a1c4" font-size="14.4" font-family="SegoeUI, Segoe UI"><tspan x="0" y="0">aio-filtered</tspan></text>
    <text id="much-more" transform="translate(70.4 231.2)" fill="#a5a1c4" font-size="14.4" font-family="SegoeUI, Segoe UI"><tspan x="0" y="0">much-more</tspan></text>
    <path id="Shape-6" data-name="Shape" d="M11.015,15.2h-.968a.368.368,0,0,1-.284-.132.356.356,0,0,1-.077-.293l.532-2.953H5.074L4.519,14.9a.365.365,0,0,1-.362.3H3.189a.368.368,0,0,1-.283-.132.358.358,0,0,1-.078-.293l.533-2.953H.367a.368.368,0,0,1-.282-.131.359.359,0,0,1-.08-.294l.172-.965a.365.365,0,0,1,.362-.3h3.12l.909-5.066H1.576a.368.368,0,0,1-.282-.131.359.359,0,0,1-.08-.294l.172-.965a.365.365,0,0,1,.362-.3h3.12L5.423.3A.366.366,0,0,1,5.784,0h.968a.369.369,0,0,1,.284.132.356.356,0,0,1,.077.292L6.583,3.378h5.143L12.281.3a.365.365,0,0,1,.362-.3h.967A.369.369,0,0,1,13.9.132a.356.356,0,0,1,.077.292l-.532,2.953h2.992a.368.368,0,0,1,.283.132.358.358,0,0,1,.078.293l-.171.965a.365.365,0,0,1-.362.3h-3.12l-.909,5.066h2.992a.368.368,0,0,1,.283.131.358.358,0,0,1,.078.293l-.171.965a.365.365,0,0,1-.362.3h-3.12L11.377,14.9A.365.365,0,0,1,11.015,15.2ZM6.283,5.067l-.909,5.066h5.143l.909-5.066H6.283Z" transform="translate(215.2 20.8)" fill="#a5a1c4"/>
    <text id="shopify-filtered-2" data-name="shopify-filtered" transform="translate(239.657 37.2)" fill="#fff" font-size="14.4" font-family="SegoeUI, Segoe UI"><tspan x="0" y="0">shopify-filtered</tspan></text>
    <text id="https:_kith.com_" data-name="https://kith.com/" transform="translate(283.2 114.8)" fill="#fff" font-size="9.6" font-family="SegoeUI, Segoe UI"><tspan x="0" y="0">https://kith.com/</tspan></text>
    <text id="Jordan_1_Mocha" data-name="Jordan 1 Mocha" transform="translate(283.2 134.8)" fill="#00b0f4" font-size="9.6" font-family="SegoeUI, Segoe UI"><tspan x="0" y="0">Jordan 1 Mocha</tspan></text>
    <text id="Price" transform="translate(283.2 154)" fill="#fff" font-size="9.6" font-family="SegoeUI, Segoe UI"><tspan x="0" y="0">Price</tspan></text>
    <text id="ATC" transform="translate(283.2 189.2)" fill="#fff" font-size="9.6" font-family="SegoeUI, Segoe UI"><tspan x="0" y="0">ATC</tspan></text>
    <text id="ATC_Copy" data-name="ATC Copy" transform="translate(373.6 189.2)" fill="#fff" font-size="9.6" font-family="SegoeUI, Segoe UI"><tspan x="0" y="0">ATC</tspan></text>
    <text id="_170.00_USD" data-name="170.00 USD" transform="translate(283.2 169.2)" fill="#fff" font-size="9.6" font-family="SegoeUI, Segoe UI"><tspan x="0" y="0">170.00 USD</tspan></text>
    <text id="_8_QT" data-name="8 | QT" transform="translate(283.2 204.4)" fill="#00b0f4" font-size="9.6" font-family="SegoeUI, Segoe UI"><tspan x="0" y="0">8 </tspan><tspan y="0" fill="#fff">|</tspan><tspan y="0" xml:space="preserve"> QT</tspan></text>
    <text id="_9_QT" data-name="9 | QT" transform="translate(283.2 219.6)" fill="#00b0f4" font-size="9.6" font-family="SegoeUI, Segoe UI"><tspan x="0" y="0">9 </tspan><tspan y="0" fill="#fff">|</tspan><tspan y="0" xml:space="preserve"> QT</tspan></text>
    <text id="_8.5_QT" data-name="8.5 | QT" transform="translate(373.6 204.4)" fill="#00b0f4" font-size="9.6" font-family="SegoeUI, Segoe UI"><tspan x="0" y="0">8.5 </tspan><tspan y="0" fill="#fff">|</tspan><tspan y="0" xml:space="preserve"> QT</tspan></text>
    <text id="_9.5_QT" data-name="9.5 | QT" transform="translate(373.6 219.6)" fill="#00b0f4" font-size="9.6" font-family="SegoeUI, Segoe UI"><tspan x="0" y="0">9.5 </tspan><tspan y="0" fill="#fff">|</tspan><tspan y="0" xml:space="preserve"> QT</tspan></text>
    <text id="Today_at_11:00_AM" data-name="Today at 11:00 AM" transform="translate(312.8 74.6)" fill="#a5a1c4" font-size="8.8" font-family="SegoeUI, Segoe UI"><tspan x="0" y="0">Today at 11:00 AM</tspan></text>
    <rect id="Rectangle-10" data-name="Rectangle" width="17.6" height="10.4" rx="2.4" transform="translate(285.6 62.4)" fill="#7389da"/>
    <text id="BOT" transform="translate(288 72.2)" fill="#fff" font-size="6.4" font-family="SegoeUI, Segoe UI"><tspan x="0" y="0">BOT</tspan></text>
    <rect id="Rectangle-11" data-name="Rectangle" width="46.4" height="46.4" rx="4.8" transform="translate(373.6 102.4)" fill="#a5a1c4"/>
    <g id="Group_4" data-name="Group 4" transform="translate(383 116)">
      <path id="Path-2" data-name="Path" d="M28.4,13.687V14.1a3.288,3.288,0,0,1-3.285,3.285H1.031A1.031,1.031,0,0,1,0,16.351V9.873a6.042,6.042,0,0,1,.057-.884v-.1l.03-.143a2.916,2.916,0,0,1,.283-.785c.143-.266.3-.485.426-.775a2.826,2.826,0,0,0,.213-.712,3.86,3.86,0,0,0,.057-.446c0-.156.02-.332.02-.515V5.491a4.572,4.572,0,0,1,.851-2.743,1.19,1.19,0,0,1,1.33-.422,8,8,0,0,0,4.243-.372l.3-.1h.02A1.533,1.533,0,0,1,9.294.012c1.094-.13,1.663.845,2.889,2.327a19.691,19.691,0,0,0,3.465,3.325c.289.216.585.412.888.6.15.09.3.176.452.259l.043.023.429.219c.156.076.316.15.475.216s.269.116.406.17c.186.076.376.146.565.209s.306.1.459.15l.1.033h0l.392.113a18.351,18.351,0,0,0,3.022.585,6.407,6.407,0,0,1,2.783.958,5.9,5.9,0,0,1,.718.532,5.792,5.792,0,0,1,.788.8,6.4,6.4,0,0,1,.552.775,4.615,4.615,0,0,1,.6,1.583A4.409,4.409,0,0,1,28.4,13.687Z" transform="translate(0 0.01)" fill="#2a244a"/>
      <path id="Path-3" data-name="Path" d="M7.505,6.507H0V1A5.722,5.722,0,0,1,.074,0L4.988,1.772Z" transform="translate(0 8.886)" fill="#ff004b"/>
      <path id="Path-4" data-name="Path" d="M15.531,5.363a4.615,4.615,0,0,0-.6-1.583,6.4,6.4,0,0,0-.552-.775,5.792,5.792,0,0,0-.788-.8,5.9,5.9,0,0,0-.718-.532A6.407,6.407,0,0,0,10.085.708,18.351,18.351,0,0,1,7.049.146L6.657.033h0L6.554,0,2.584,1.772l-.09.106A10.081,10.081,0,0,0,0,7.864H4.253a3.828,3.828,0,0,0,2.394,2H12.3a3.285,3.285,0,0,0,3.285-3.285V6.165a4.409,4.409,0,0,0-.053-.8Z" transform="translate(12.799 7.539)" fill="#ff004b"/>
      <path id="Path-5" data-name="Path" d="M28.4.811V1.22a3.288,3.288,0,0,1-3.285,3.285H1.031A1.031,1.031,0,0,1,0,3.475V2.507H23.94c1.264,0,2.55-.585,4.389-2.507A4.409,4.409,0,0,1,28.4.811Z" transform="translate(0.001 12.886)" fill="#fff"/>
      <g id="_76zqUK.tif" transform="translate(0.024 8.238)">
        <path id="Path-6" data-name="Path" d="M11.87,3.977a1.363,1.363,0,0,1-.884.748,2.507,2.507,0,0,1-1.031.043A5.15,5.15,0,0,1,9,4.539c-.352-.113-.688-.259-1.024-.4L0,.722v-.1L.03.479l3.677.978,4.173,1.1a5.942,5.942,0,0,0,1.054.223,2.414,2.414,0,0,0,.725-.04,1.16,1.16,0,0,0,.911-1.067,1.968,1.968,0,0,0-.06-.638,3.8,3.8,0,0,0-.419-1L10.071,0h0a.083.083,0,0,0,0,.023c.289.316.579.635.848.971a6.155,6.155,0,0,1,.731,1.117,3.056,3.056,0,0,1,.333,1.177,1.406,1.406,0,0,1-.113.688Z" transform="translate(0.017 0.04)" fill="#fff"/>
      </g>
      <path id="Path-7" data-name="Path" d="M8.166,2.052A5.692,5.692,0,0,1,4.432,4.3,6.68,6.68,0,0,1,0,3.382C1.579,2.018,2,.828,1.639,0A18.351,18.351,0,0,0,4.655.572a6.407,6.407,0,0,1,2.783.958A5.9,5.9,0,0,1,8.166,2.052Z" transform="translate(18.228 7.676)" fill="#fff"/>
      <path id="Path-8" data-name="Path" d="M11.96,7.559h0a3.672,3.672,0,0,1-1.879,3.109A39.339,39.339,0,0,1,0,1.963C.2,1.9.333,1.85.333,1.85A1.533,1.533,0,0,1,1.8.012C2.9-.118,3.465.856,4.692,2.339A19.691,19.691,0,0,0,8.156,5.664a10.334,10.334,0,0,0,.888.6c.15.09.3.176.452.259l.043.023.429.219c.156.076.316.15.475.216s.269.116.406.17c.186.076.376.146.565.209s.306.1.459.15Z" transform="translate(7.505 0)" fill="#ff004b"/>
      <path id="Path-9" data-name="Path" d="M6.959.5A1.31,1.31,0,0,1,6.165,2.3L0,4.189c0-.156.02-.332.02-.515A4.562,4.562,0,0,1,.845.908,1.19,1.19,0,0,1,2.175.485C4.056,1.047,6.733,0,6.733,0Z" transform="translate(1.091 1.85)" fill="#ff004b"/>
      <path id="Path-10" data-name="Path" d="M11.465,4.555,6.617,6.118a3.382,3.382,0,0,1-1.247.073C3.481,6.018.848,4.934.1,4.861a.515.515,0,0,0-.1,0A2.826,2.826,0,0,0,.213,4.15,3.86,3.86,0,0,0,.269,3.7c0-.156.02-.332.02-.515V3.165a5.406,5.406,0,0,1,1.35-.715,12.02,12.02,0,0,1,2.85-.665A11.933,11.933,0,0,0,7.561.352C7.894.146,8.14,0,8.14,0Z" transform="translate(0.812 2.339)" fill="#ff004b"/>
      <path id="Path-11" data-name="Path" d="M5.014,5.134,5.37,6.667C3.481,6.494.848,5.41.1,5.337a.515.515,0,0,0-.1,0,2.826,2.826,0,0,0,.213-.712A3.86,3.86,0,0,0,.269,4.18c0-.156.02-.332.02-.515l1.35-.738L6.989,0h.02l.552.851.023.037Z" transform="translate(0.812 1.864)" fill="#fff"/>
    </g>
  </g>
</svg>
