<?xml version="1.0" encoding="UTF-8"?>
<svg width="515px" height="371px" viewBox="0 0 515 371" version="1.1" xmlns="http://www.w3.org/2000/svg" xmlns:xlink="http://www.w3.org/1999/xlink">
    <title>Group 2</title>
    <defs>
        <rect id="path-1" x="119.2" y="0" width="341.6" height="262.4" rx="6.4"></rect>
        <filter x="-26.5%" y="-27.2%" width="153.0%" height="169.0%" filterUnits="objectBoundingBox" id="filter-2">
            <feOffset dx="0" dy="19" in="SourceAlpha" result="shadowOffsetOuter1"></feOffset>
            <feGaussianBlur stdDeviation="27" in="shadowOffsetOuter1" result="shadowBlurOuter1"></feGaussianBlur>
            <feColorMatrix values="0 0 0 0 0.0238244846   0 0 0 0 0.0203106266   0 0 0 0 0.0538219507  0 0 0 0.357143589 0" type="matrix" in="shadowBlurOuter1"></feColorMatrix>
        </filter>
        <rect id="path-3" x="0" y="0" width="180" height="153.6" rx="4.8"></rect>
    </defs>
    <g id="Page-1" stroke="none" stroke-width="1" fill="none" fill-rule="evenodd">
        <g id="Kuai2.0Site-Copy" transform="translate(-822.000000, -1096.000000)">
            <g id="Features" transform="translate(189.500000, 996.000000)">
                <g id="Group-2" transform="translate(632.500000, 135.000000)">
                    <g id="Rectangle" fill-rule="nonzero">
                        <use fill="black" fill-opacity="1" filter="url(#filter-2)" xlink:href="#path-1"></use>
                        <use fill="#2D284B" xlink:href="#path-1"></use>
                    </g>
                    <path d="M104,6.4 C104,2.86536 106.8656,0 110.4,0 L194.4,0 L194.4,262.4 L110.4,262.4 C106.8656,262.4 104,259.5344 104,256 L104,6.4 Z" id="Path" fill="#120E26" fill-rule="nonzero"></path>
                    <rect id="Rectangle" fill="#2D284B" fill-rule="nonzero" x="0" y="60.8" width="152.8" height="38.4" rx="6.4"></rect>
                    <path d="M15.01456,89.2 C14.76568,89.2 14.57728,88.9752 14.62072,88.7304 L15.2,85.4664 L11.94272,85.4664 C11.69424,85.4664 11.50592,85.2424 11.54872,84.9976 L11.73544,83.9312 C11.76888,83.74 11.93512,83.6 12.12944,83.6 L15.52664,83.6 L16.516,78 L13.25872,78 C13.01024,78 12.82192,77.776 12.86472,77.5312 L13.05144,76.464 C13.08488,76.2728 13.25112,76.1336 13.44544,76.1336 L16.84264,76.1336 L17.44672,72.7304 C17.48064,72.5392 17.64664,72.4 17.84056,72.4 L18.89472,72.4 C19.1436,72.4 19.33208,72.6248 19.28856,72.8696 L18.70936,76.1336 L24.30936,76.1336 L24.91344,72.7304 C24.94728,72.5392 25.11328,72.4 25.30728,72.4 L26.36144,72.4 C26.61032,72.4 26.79872,72.6248 26.75528,72.8696 L26.176,76.1336 L29.43328,76.1336 C29.68176,76.1336 29.87008,76.3576 29.82728,76.6024 L29.64064,77.6688 C29.60712,77.86 29.44088,78 29.24656,78 L25.84936,78 L24.86,83.6 L28.11728,83.6 C28.36576,83.6 28.55408,83.824 28.51128,84.0688 L28.32464,85.136 C28.29112,85.3272 28.12488,85.4664 27.93056,85.4664 L24.53336,85.4664 L23.92928,88.8696 C23.89536,89.0608 23.72936,89.2 23.53544,89.2 L22.48128,89.2 C22.2324,89.2 22.04392,88.9752 22.08744,88.7304 L22.66664,85.4664 L17.06664,85.4664 L16.46256,88.8696 C16.42872,89.0608 16.26272,89.2 16.06872,89.2 L15.01456,89.2 Z M18.38304,78 L17.39376,83.6 L22.99376,83.6 L23.98304,78 L18.38304,78 Z" id="Shape" fill="#A5A1C4"></path>
                    <rect id="Rectangle" fill="#2D284B" fill-rule="nonzero" x="25.6" y="14.4" width="142.4" height="32" rx="6.4"></rect>
                    <path d="M36.70928,37.6 C36.4604,37.6 36.27192,37.37512 36.31544,37.13008 L36.8,34.4 L34.07608,34.4 C33.8276,34.4 33.6392,34.17584 33.68208,33.93104 L33.82208,33.13104 C33.8556,32.93968 34.02176,32.8 34.21608,32.8 L37.08,32.8 L37.928,28 L35.20408,28 C34.9556,28 34.7672,27.77584 34.81008,27.53104 L34.95008,26.73104 C34.9836,26.53968 35.14976,26.4 35.34408,26.4 L38.208,26.4 L38.71744,23.53008 C38.75128,23.33912 38.91728,23.2 39.11128,23.2 L39.89872,23.2 C40.1476,23.2 40.33608,23.42488 40.29256,23.66992 L39.808,26.4 L44.608,26.4 L45.11744,23.53008 C45.15128,23.33912 45.31728,23.2 45.51128,23.2 L46.29872,23.2 C46.5476,23.2 46.73608,23.42488 46.69256,23.66992 L46.208,26.4 L48.93192,26.4 C49.1804,26.4 49.3688,26.62416 49.32592,26.86896 L49.18592,27.66896 C49.15248,27.86032 48.98624,28 48.79192,28 L45.928,28 L45.08,32.8 L47.80392,32.8 C48.0524,32.8 48.2408,33.02416 48.19792,33.26896 L48.05792,34.06896 C48.02448,34.26032 47.85824,34.4 47.66392,34.4 L44.8,34.4 L44.29056,37.26992 C44.25672,37.46088 44.09072,37.6 43.89672,37.6 L43.10928,37.6 C42.8604,37.6 42.67192,37.37512 42.71544,37.13008 L43.2,34.4 L38.4,34.4 L37.89056,37.26992 C37.85672,37.46088 37.69072,37.6 37.49672,37.6 L36.70928,37.6 Z M39.52832,28 L38.68032,32.8 L43.48032,32.8 L44.32832,28 L39.52832,28 Z" id="Shape" fill="#A5A1C4"></path>
                    <rect id="Rectangle" fill="#2D284B" fill-rule="nonzero" x="25.6" y="113.6" width="142.4" height="32" rx="6.4"></rect>
                    <path d="M36.70928,136.8 C36.4604,136.8 36.27192,136.5752 36.31544,136.3304 L36.8,133.6 L34.07608,133.6 C33.8276,133.6 33.6392,133.376 33.68208,133.1312 L33.82208,132.3312 C33.8556,132.14 34.02176,132 34.21608,132 L37.08,132 L37.928,127.2 L35.20408,127.2 C34.9556,127.2 34.7672,126.976 34.81008,126.7312 L34.95008,125.9312 C34.9836,125.74 35.14976,125.6 35.34408,125.6 L38.208,125.6 L38.71744,122.7304 C38.75128,122.5392 38.91728,122.4 39.11128,122.4 L39.89872,122.4 C40.1476,122.4 40.33608,122.6248 40.29256,122.8696 L39.808,125.6 L44.608,125.6 L45.11744,122.7304 C45.15128,122.5392 45.31728,122.4 45.51128,122.4 L46.29872,122.4 C46.5476,122.4 46.73608,122.6248 46.69256,122.8696 L46.208,125.6 L48.93192,125.6 C49.1804,125.6 49.3688,125.824 49.32592,126.0688 L49.18592,126.8688 C49.15248,127.06 48.98624,127.2 48.79192,127.2 L45.928,127.2 L45.08,132 L47.80392,132 C48.0524,132 48.2408,132.224 48.19792,132.4688 L48.05792,133.2688 C48.02448,133.46 47.85824,133.6 47.66392,133.6 L44.8,133.6 L44.29056,136.4696 C44.25672,136.6608 44.09072,136.8 43.89672,136.8 L43.10928,136.8 C42.8604,136.8 42.67192,136.5752 42.71544,136.3304 L43.2,133.6 L38.4,133.6 L37.89056,136.4696 C37.85672,136.6608 37.69072,136.8 37.49672,136.8 L36.70928,136.8 Z M39.52832,127.2 L38.68032,132 L43.48032,132 L44.32832,127.2 L39.52832,127.2 Z" id="Shape" fill="#A5A1C4"></path>
                    <rect id="Rectangle" fill="#2D284B" fill-rule="nonzero" x="36" y="160" width="142.4" height="32" rx="6.4"></rect>
                    <rect id="Rectangle-Copy-2" fill="#2D284B" fill-rule="nonzero" x="36" y="206.4" width="142.4" height="32" rx="6.4"></rect>
                    <path d="M47.10928,183.2 C46.8604,183.2 46.67192,182.9752 46.71544,182.7304 L47.2,180 L44.47608,180 C44.2276,180 44.0392,179.776 44.08208,179.5312 L44.22208,178.7312 C44.2556,178.54 44.42176,178.4 44.61608,178.4 L47.48,178.4 L48.328,173.6 L45.60408,173.6 C45.3556,173.6 45.1672,173.376 45.21008,173.1312 L45.35008,172.3312 C45.3836,172.14 45.54976,172 45.74408,172 L48.608,172 L49.11744,169.1304 C49.15128,168.9392 49.31728,168.8 49.51128,168.8 L50.29872,168.8 C50.5476,168.8 50.73608,169.0248 50.69256,169.2696 L50.208,172 L55.008,172 L55.51744,169.1304 C55.55128,168.9392 55.71728,168.8 55.91128,168.8 L56.69872,168.8 C56.9476,168.8 57.13608,169.0248 57.09256,169.2696 L56.608,172 L59.33192,172 C59.5804,172 59.7688,172.224 59.72592,172.4688 L59.58592,173.2688 C59.55248,173.46 59.38624,173.6 59.19192,173.6 L56.328,173.6 L55.48,178.4 L58.20392,178.4 C58.4524,178.4 58.6408,178.624 58.59792,178.8688 L58.45792,179.6688 C58.42448,179.86 58.25824,180 58.06392,180 L55.2,180 L54.69056,182.8696 C54.65672,183.0608 54.49072,183.2 54.29672,183.2 L53.50928,183.2 C53.2604,183.2 53.07192,182.9752 53.11544,182.7304 L53.6,180 L48.8,180 L48.29056,182.8696 C48.25672,183.0608 48.09072,183.2 47.89672,183.2 L47.10928,183.2 Z M49.92832,173.6 L49.08032,178.4 L53.88032,178.4 L54.72832,173.6 L49.92832,173.6 Z" id="Shape" fill="#A5A1C4"></path>
                    <path d="M47.10928,229.6 C46.8604,229.6 46.67192,229.3752 46.71544,229.1304 L47.2,226.4 L44.47608,226.4 C44.2276,226.4 44.0392,226.176 44.08208,225.9312 L44.22208,225.1312 C44.2556,224.94 44.42176,224.8 44.61608,224.8 L47.48,224.8 L48.328,220 L45.60408,220 C45.3556,220 45.1672,219.776 45.21008,219.5312 L45.35008,218.7312 C45.3836,218.54 45.54976,218.4 45.74408,218.4 L48.608,218.4 L49.11744,215.5304 C49.15128,215.3392 49.31728,215.2 49.51128,215.2 L50.29872,215.2 C50.5476,215.2 50.73608,215.4248 50.69256,215.6696 L50.208,218.4 L55.008,218.4 L55.51744,215.5304 C55.55128,215.3392 55.71728,215.2 55.91128,215.2 L56.69872,215.2 C56.9476,215.2 57.13608,215.4248 57.09256,215.6696 L56.608,218.4 L59.33192,218.4 C59.5804,218.4 59.7688,218.624 59.72592,218.8688 L59.58592,219.6688 C59.55248,219.86 59.38624,220 59.19192,220 L56.328,220 L55.48,224.8 L58.20392,224.8 C58.4524,224.8 58.6408,225.024 58.59792,225.2688 L58.45792,226.0688 C58.42448,226.26 58.25824,226.4 58.06392,226.4 L55.2,226.4 L54.69056,229.2696 C54.65672,229.4608 54.49072,229.6 54.29672,229.6 L53.50928,229.6 C53.2604,229.6 53.07192,229.3752 53.11544,229.1304 L53.6,226.4 L48.8,226.4 L48.29056,229.2696 C48.25672,229.4608 48.09072,229.6 47.89672,229.6 L47.10928,229.6 Z M49.92832,220 L49.08032,224.8 L53.88032,224.8 L54.72832,220 L49.92832,220 Z" id="Shape-Copy" fill="#A5A1C4"></path>
                    <circle id="Oval" fill="#413B65" cx="229.6" cy="76" r="16"></circle>
                    <g id="Rectangle" transform="translate(258.400000, 85.600000)">
                        <mask id="mask-4" fill="white">
                            <use xlink:href="#path-3"></use>
                        </mask>
                        <use id="Mask" fill="#251F46" xlink:href="#path-3"></use>
                        <rect fill="#FF5D86" mask="url(#mask-4)" x="0" y="0" width="5.6" height="153.6"></rect>
                    </g>
                    <text id="Kith" font-family="HurmeGeometricSans3-SemiBold, Hurme Geometric Sans 3" font-size="12.8" font-weight="500" fill="#FFFFFF">
                        <tspan x="258.4" y="72.4">Kith</tspan>
                    </text>
                    <path d="M229.13133,77.7621228 L227.519313,74.8132154 L229.187983,71.9014568 L226.700429,71.874922 L225.03176,74.7866805 L226.643777,77.7320499 L229.13133,77.7621228 Z M232.049785,75.7012487 L230.381116,78.6130073 L227.098712,78.5776275 L228.32103,80.8100937 L231.603433,80.8454735 L233.272103,77.9337149 L232.049785,75.7012487 Z M228.860086,74.1091571 L232.140773,74.1445369 L233.75279,77.0899063 L235.019742,74.882206 L233.407725,71.9368366 L230.125322,71.9085328 L228.860086,74.1091571 Z M224.547639,70.9904266 L222.4,74.7513007 L224.47897,78.5493236 L226.156223,78.5670135 L224.08412,74.7796046 L226.245494,71.0134235 L224.547639,70.9904266 Z M228.654077,83.1557752 L232.885837,83.2 L235.040343,79.4444329 L234.216309,77.9372529 L232.06867,81.680437 L227.823176,81.6362123 L228.654077,83.1557752 Z M236.8,73.4440166 L234.72103,69.6442248 L230.48927,69.6 L229.630901,71.0894901 L233.850644,71.1337149 L235.936481,74.9458897 L236.8,73.4440166 Z" id="Shape" fill="#FF5D86" fill-rule="nonzero"></path>
                    <text id="shopify-filtered" font-family="HurmeGeometricSans3-SemiBold, Hurme Geometric Sans 3" font-size="14.4" font-weight="500" fill="#FFFFFF">
                        <tspan x="36.8" y="83.8">shopify-filtered</tspan>
                    </text>
                    <text id="twitter-fast" font-family="HurmeGeometricSans3-SemiBold, Hurme Geometric Sans 3" font-size="14.4" font-weight="500" fill="#A5A1C4">
                        <tspan x="60" y="34.2">twitter-fast</tspan>
                    </text>
                    <text id="supreme-us" font-family="HurmeGeometricSans3-SemiBold, Hurme Geometric Sans 3" font-size="14.4" font-weight="500" fill="#A5A1C4">
                        <tspan x="60" y="134.2">supreme-us</tspan>
                    </text>
                    <text id="aio-filtered" font-family="HurmeGeometricSans3-SemiBold, Hurme Geometric Sans 3" font-size="14.4" font-weight="500" fill="#A5A1C4">
                        <tspan x="70.4" y="180.6">aio-filtered</tspan>
                    </text>
                    <text id="much-more" font-family="HurmeGeometricSans3-SemiBold, Hurme Geometric Sans 3" font-size="14.4" font-weight="500" fill="#A5A1C4">
                        <tspan x="70.4" y="226.2">much-more</tspan>
                    </text>
                    <path d="M218.388958,36 C218.160362,36 217.987317,35.7966095 218.027217,35.5751238 L218.559284,32.621981 L215.56748,32.621981 C215.339251,32.621981 215.16628,32.4193143 215.205591,32.1978286 L215.377093,31.2329905 C215.407808,31.06 215.560499,30.9333333 215.738982,30.9333333 L218.859302,30.9333333 L219.768027,25.8666667 L216.776223,25.8666667 C216.547994,25.8666667 216.375023,25.664 216.414335,25.4425143 L216.585836,24.4769524 C216.616551,24.3039619 216.769242,24.178019 216.947725,24.178019 L220.068045,24.178019 L220.622891,21.0989333 C220.654047,20.9259429 220.806518,20.8 220.984633,20.8 L221.952876,20.8 C222.181472,20.8 222.35459,21.0033905 222.314617,21.2248762 L221.782624,24.178019 L226.926211,24.178019 L227.481057,21.0989333 C227.512139,20.9259429 227.66461,20.8 227.842798,20.8 L228.811042,20.8 C229.039638,20.8 229.212683,21.0033905 229.172783,21.2248762 L228.640716,24.178019 L231.63252,24.178019 C231.860749,24.178019 232.03372,24.3806857 231.994409,24.6021714 L231.82298,25.5670095 C231.792192,25.74 231.639501,25.8666667 231.461018,25.8666667 L228.340698,25.8666667 L227.431973,30.9333333 L230.423777,30.9333333 C230.652006,30.9333333 230.824977,31.136 230.785665,31.3574857 L230.614237,32.3230476 C230.583449,32.4960381 230.430758,32.621981 230.252275,32.621981 L227.131955,32.621981 L226.577109,35.7010667 C226.545953,35.8740571 226.393482,36 226.215367,36 L225.247124,36 C225.018528,36 224.84541,35.7966095 224.885383,35.5751238 L225.417376,32.621981 L220.273789,32.621981 L219.718943,35.7010667 C219.687861,35.8740571 219.53539,36 219.357202,36 L218.388958,36 Z M221.482899,25.8666667 L220.574248,30.9333333 L225.717835,30.9333333 L226.626487,25.8666667 L221.482899,25.8666667 Z" id="Shape" fill="#A5A1C4"></path>
                    <text id="shopify-filtered" font-family="HurmeGeometricSans3-SemiBold, Hurme Geometric Sans 3" font-size="14.4" font-weight="500" fill="#FFFFFF">
                        <tspan x="239.657368" y="32.2">shopify-filtered</tspan>
                    </text>
                    <text id="https://kith.com/" font-family="HurmeGeometricSans3-SemiBold, Hurme Geometric Sans 3" font-size="9.6" font-weight="500" fill="#FFFFFF">
                        <tspan x="283.2" y="111.8">https://kith.com/</tspan>
                    </text>
                    <text id="Jordan-1-Mocha" font-family="HurmeGeometricSans3-SemiBold, Hurme Geometric Sans 3" font-size="9.6" font-weight="500" fill="#00B0F4">
                        <tspan x="283.2" y="131.8">Jordan 1 Mocha</tspan>
                    </text>
                    <text id="Price" font-family="HurmeGeometricSans3-SemiBold, Hurme Geometric Sans 3" font-size="9.6" font-weight="500" fill="#FFFFFF">
                        <tspan x="283.2" y="151">Price</tspan>
                    </text>
                    <text id="ATC" font-family="HurmeGeometricSans3-SemiBold, Hurme Geometric Sans 3" font-size="9.6" font-weight="500" fill="#FFFFFF">
                        <tspan x="283.2" y="186.2">ATC</tspan>
                    </text>
                    <text id="ATC-Copy" font-family="HurmeGeometricSans3-SemiBold, Hurme Geometric Sans 3" font-size="9.6" font-weight="500" fill="#FFFFFF">
                        <tspan x="373.6" y="186.2">ATC</tspan>
                    </text>
                    <text id="170.00-USD" font-family="HurmeGeometricSans3-Regular, Hurme Geometric Sans 3" font-size="9.6" font-weight="normal" fill="#FFFFFF">
                        <tspan x="283.2" y="166.2">170.00 USD</tspan>
                    </text>
                    <text id="8-|-QT" font-family="HurmeGeometricSans3-Regular, Hurme Geometric Sans 3" font-size="9.6" font-weight="normal">
                        <tspan x="283.2" y="201.4" fill="#00B0F4">8 </tspan>
                        <tspan x="292.3584" y="201.4" fill="#FFFFFF">|</tspan>
                        <tspan x="294.7392" y="201.4" fill="#00B0F4"> QT</tspan>
                    </text>
                    <text id="9-|-QT" font-family="HurmeGeometricSans3-Regular, Hurme Geometric Sans 3" font-size="9.6" font-weight="normal">
                        <tspan x="283.2" y="216.6" fill="#00B0F4">9 </tspan>
                        <tspan x="292.4544" y="216.6" fill="#FFFFFF">|</tspan>
                        <tspan x="294.8352" y="216.6" fill="#00B0F4"> QT</tspan>
                    </text>
                    <text id="8.5-|-QT" font-family="HurmeGeometricSans3-Regular, Hurme Geometric Sans 3" font-size="9.6" font-weight="normal">
                        <tspan x="373.6" y="201.4" fill="#00B0F4">8.5 </tspan>
                        <tspan x="389.8912" y="201.4" fill="#FFFFFF">|</tspan>
                        <tspan x="392.272" y="201.4" fill="#00B0F4"> QT</tspan>
                    </text>
                    <text id="9.5-|-QT" font-family="HurmeGeometricSans3-Regular, Hurme Geometric Sans 3" font-size="9.6" font-weight="normal">
                        <tspan x="373.6" y="216.6" fill="#00B0F4">9.5 </tspan>
                        <tspan x="389.9872" y="216.6" fill="#FFFFFF">|</tspan>
                        <tspan x="392.368" y="216.6" fill="#00B0F4"> QT</tspan>
                    </text>
                    <text id="Today-at-11:00-AM" font-family="HurmeGeometricSans3-Regular, Hurme Geometric Sans 3" font-size="8.8" font-weight="normal" fill="#A5A1C4">
                        <tspan x="312.8" y="72.6">Today at 11:00 AM</tspan>
                    </text>
                    <rect id="Rectangle" fill="#7389DA" x="285.6" y="62.4" width="17.6" height="10.4" rx="2.4"></rect>
                    <text id="BOT" font-family="HurmeGeometricSans3-SemiBold, Hurme Geometric Sans 3" font-size="6.4" font-weight="500" fill="#FFFFFF">
                        <tspan x="288" y="70.2">BOT</tspan>
                    </text>
                    <rect id="Rectangle" fill="#A5A1C4" x="373.6" y="102.4" width="46.4" height="46.4" rx="4.8"></rect>
                    <g id="Group-4" transform="translate(383.000000, 116.000000)" fill-rule="nonzero">
                        <path d="M28.4027352,13.6972482 L28.4027352,14.1062232 C28.4009024,15.9197742 26.9311862,17.3894904 25.1176352,17.3913232 L1.03133523,17.3913232 C0.462067728,17.3913232 0.000307430283,16.9298407 0.000307430283,16.3605732 L0.000307430283,9.88347323 C-0.00225156199,9.58767031 0.0166409234,9.29205848 0.0571102343,8.99902323 C0.0571102343,8.96577323 0.0571102343,8.93252323 0.0571102343,8.89927323 L0.0870352343,8.75629823 C0.143156842,8.48254042 0.238338531,8.21827127 0.369660234,7.97159823 C0.512635234,7.70559823 0.665585234,7.48614823 0.795260234,7.19687323 C0.897184249,6.97008309 0.96873521,6.73083457 1.00806023,6.48532323 C1.03553268,6.3380294 1.05440628,6.18926102 1.06458523,6.03977323 C1.06458523,5.88349823 1.08453523,5.70727323 1.08453523,5.52439823 L1.08453523,5.50112323 C1.06622893,4.5190512 1.36469596,3.55719455 1.93573523,2.75799823 C2.24143286,2.34489708 2.77772871,2.17462315 3.26573523,2.33572323 C4.75533523,2.78127323 6.74701023,2.21602323 7.50843523,1.96332323 L7.80436023,1.86024823 L7.82431023,1.86024823 C7.73349054,1.41483222 7.84505695,0.952081648 8.12887464,0.596988476 C8.41269233,0.241895304 8.83948026,0.0310939479 9.29396023,0.0215232348 C10.3878852,-0.108151765 10.9564602,0.866073235 12.1833852,2.34902323 C13.1982909,3.59455579 14.3618244,4.71119061 15.6480352,5.67402323 C15.9373102,5.89014823 16.2332352,6.08632323 16.5358102,6.26919823 C16.6854352,6.35897323 16.8350602,6.44542323 16.9880102,6.52854823 L17.0312352,6.55182323 L17.4601602,6.77127323 C17.6164352,6.84774823 17.7760352,6.92089823 17.9356352,6.98739823 C18.0952352,7.05389823 18.2049602,7.10377323 18.3412852,7.15697323 C18.5274852,7.23344823 18.7170102,7.30327323 18.9065352,7.36644823 C19.0960602,7.42962323 19.2124352,7.46952323 19.3653852,7.51607323 L19.4684602,7.54932323 L19.4684602,7.54932323 L19.8608102,7.66237323 C20.8501155,7.94175305 21.8611473,8.13750839 22.8832352,8.24757323 C23.8726478,8.34649993 24.8254577,8.67434849 25.6662602,9.20517323 C25.9187775,9.3640772 26.1588673,9.54192151 26.3844602,9.73717323 C26.6724897,9.97810575 26.9364067,10.2464771 27.1724852,10.5384982 C27.3754201,10.7826996 27.5599123,11.0416554 27.7244352,11.3132232 C28.0186052,11.7996337 28.2203829,12.3362045 28.3196102,12.8959232 C28.3717153,13.159935 28.3995398,13.4281628 28.4027352,13.6972482 Z" id="Path" fill="#2A244A"></path>
                        <path d="M7.50511023,15.3929982 L0.000585234292,15.3929982 L0.000585234292,9.88347323 C-0.00419192752,9.54947553 0.0202848767,9.21570092 0.0737352343,8.88597323 L4.98808523,10.6581982 L7.50511023,15.3929982 Z" id="Path" fill="#FF004B"></path>
                        <path d="M28.3295852,12.9025732 C28.2303579,12.3428545 28.0285802,11.8062837 27.7344102,11.3198732 C27.5698873,11.0483054 27.3853951,10.7893496 27.1824602,10.5451482 C26.9463817,10.2531271 26.6824647,9.98475575 26.3944352,9.74382323 C26.1688423,9.54857151 25.9287525,9.3707272 25.6762352,9.21182323 C24.8330741,8.67719559 23.8766444,8.34699963 22.8832352,8.24757323 C21.8573391,8.14586963 20.8418379,7.95789624 19.8475102,7.68564823 L19.4551602,7.57259823 L19.4551602,7.57259823 L19.3520852,7.53934823 L15.3820352,9.31157323 L15.2922602,9.41797323 C13.8246541,11.0839489 12.9480484,13.1878025 12.7985102,15.4029732 L17.0511852,15.4029732 C17.4501852,16.3605732 18.3346352,16.9956482 19.4451852,17.3979732 L25.0976852,17.3979732 C25.9689479,17.3979732 26.804526,17.0518655 27.4206017,16.4357897 C28.0366775,15.819714 28.3827852,14.9841359 28.3827852,14.1128732 L28.3827852,13.7038982 C28.3894663,13.4357277 28.3716592,13.1675069 28.3295852,12.9025732 L28.3295852,12.9025732 Z" id="Path" fill="#FF004B"></path>
                        <path d="M28.40275,13.6972482 L28.40275,14.1062232 C28.4009024,15.9197742 26.9311862,17.3894904 25.1176352,17.3913232 L1.03133523,17.3913232 C0.462067728,17.3913232 0.000585234292,16.9298407 0.000585234292,16.3605732 L0.000585234292,15.3929982 L23.9405852,15.3929982 C25.2040852,15.3929982 26.4908602,14.8077982 28.3295852,12.8859482 C28.3789523,13.1535448 28.4034401,13.425137 28.40275,13.6972482 Z" id="Path" fill="#FFFFFF"></path>
                        <g id="_76zqUK.tif" transform="translate(0.023860, 8.237598)" fill="#FFFFFF">
                            <path d="M11.886875,4.0166 C11.7179419,4.38506311 11.3938028,4.65924093 11.002425,4.764725 C10.6655536,4.85043457 10.3145396,4.86515451 9.971675,4.80795 C9.6481306,4.76181913 9.32971141,4.68499772 9.020725,4.578525 C8.668275,4.465475 8.33245,4.319175 7.996625,4.1762 L0.016625,0.761425 C0.016625,0.728175 0.016625,0.694925 0.016625,0.661675 L0.04655,0.5187 L3.724,1.49625 L7.896875,2.5935 C8.24074599,2.69952193 8.59353736,2.77408667 8.9509,2.816275 C9.19314658,2.83958945 9.437526,2.82613737 9.67575,2.776375 C10.1845167,2.66532009 10.5570006,2.22894301 10.5868,1.70905 C10.6018765,1.49440915 10.5816583,1.27874853 10.52695,1.07065 C10.4355843,0.719872121 10.2945052,0.383969293 10.108,0.07315 L10.08805,0.0399 L10.08805,0.0399 C10.0869585,0.0476199403 10.0869585,0.0554550597 10.08805,0.063175 C10.377325,0.37905 10.6666,0.69825 10.935925,1.034075 C11.2195566,1.37884188 11.4648333,1.75344632 11.667425,2.151275 C11.8564522,2.51720675 11.9695509,2.917576 11.999925,3.328325 C12.0206299,3.56360291 11.9817511,3.80030641 11.886875,4.0166 L11.886875,4.0166 Z" id="Path"></path>
                        </g>
                        <path d="M26.3944352,9.72719823 C25.4972365,10.9421077 24.1540111,11.7506743 22.6604602,11.9748982 C21.1212746,12.1941076 19.553831,11.8695657 18.2282352,11.0571982 C19.8076102,9.69394823 20.2232352,8.50359823 19.8674602,7.67567323 C20.8549829,7.95019449 21.8637694,8.14149689 22.8832352,8.24757323 C23.8726478,8.34649993 24.8254577,8.67434849 25.6662602,9.20517323 C25.9218759,9.36045813 26.1653038,9.53497033 26.3944352,9.72719823 Z" id="Path" fill="#FFFFFF"></path>
                        <path d="M19.4651352,7.55929823 L19.4651352,7.55929823 C19.2057852,9.97989823 17.5865102,10.6681732 17.5865102,10.6681732 C14.0719852,8.78622323 9.53003523,4.55682323 7.50511023,1.96332323 C7.70461023,1.89682323 7.83761023,1.85027323 7.83761023,1.85027323 C7.74679054,1.40485722 7.85835695,0.942106648 8.14217464,0.587013476 C8.42599233,0.231920304 8.85278026,0.0211189479 9.30726023,0.0115482348 C10.4011852,-0.118126765 10.9697602,0.856098235 12.1966852,2.33904823 C13.2115909,3.58458079 14.3751244,4.70121561 15.6613352,5.66404823 C15.9467958,5.87762059 16.243117,6.07627789 16.5491102,6.25922323 C16.6987352,6.34899823 16.8483602,6.43544823 17.0013102,6.51857323 L17.0445352,6.54184823 L17.4734602,6.76129823 C17.6297352,6.83777323 17.7893352,6.91092323 17.9489352,6.97742323 C18.1085352,7.04392323 18.2182602,7.09379823 18.3545852,7.14699823 C18.5407852,7.22347323 18.7303102,7.29329823 18.9198352,7.35647323 C19.1093602,7.41964823 19.2257352,7.45954823 19.3786852,7.50609823 L19.4651352,7.55929823 Z" id="Path" fill="#FF004B"></path>
                        <path d="M8.05041023,2.34569823 C8.21183487,2.68836867 8.21703783,3.08413623 8.06467726,3.43093184 C7.91231669,3.77772745 7.6173083,4.04160069 7.25573523,4.15449823 L1.09118523,6.03977323 C1.09118523,5.88349823 1.11113523,5.70727323 1.11113523,5.52439823 C1.07931023,4.53731694 1.36866929,3.56656396 1.93573523,2.75799823 C2.24143286,2.34489708 2.77772871,2.17462315 3.26573523,2.33572323 C5.14768523,2.89764823 7.82431023,1.85027323 7.82431023,1.85027323 L8.05041023,2.34569823 Z" id="Path" fill="#FF004B"></path>
                        <path d="M12.2764852,6.89429823 L7.42863523,8.45704823 C7.02115825,8.55864473 6.59832172,8.58345114 6.18176023,8.53019823 C4.29316023,8.35729823 1.65976023,7.27334823 0.911635234,7.20019823 C0.87846345,7.19697292 0.845057019,7.19697292 0.811885234,7.20019823 C0.913809249,6.97340809 0.98536021,6.73415957 1.02468523,6.48864823 C1.05215768,6.3413544 1.07103128,6.19258602 1.08121023,6.04309823 C1.08121023,5.88682323 1.10116023,5.71059823 1.10116023,5.52772323 L1.10116023,5.50444823 C1.51504235,5.20346747 1.96956133,4.96277392 2.45111023,4.78957323 C3.37032579,4.4526886 4.32725626,4.22936761 5.30063523,4.12457323 C6.01883523,4.03812323 7.53836023,3.18692323 8.37293523,2.69149823 C8.70543523,2.48534823 8.95148523,2.33904823 8.95148523,2.33904823 L12.2764852,6.89429823 Z" id="Path" fill="#FF004B"></path>
                        <path d="M5.82598523,6.99737323 L6.18176023,8.53019823 C4.29316023,8.35729823 1.65976023,7.27334823 0.911635234,7.20019823 C0.87846345,7.19697292 0.845057019,7.19697292 0.811885234,7.20019823 C0.913809249,6.97340809 0.98536021,6.73415957 1.02468523,6.48864823 C1.05215768,6.3413544 1.07103128,6.19258602 1.08121023,6.04309823 C1.08121023,5.88682323 1.10116023,5.71059823 1.10116023,5.52772323 L2.45111023,4.78957323 L7.80103523,1.86357323 L7.82098523,1.86357323 L8.37293523,2.71477323 L8.39621023,2.75134823 L5.82598523,6.99737323 Z" id="Path" fill="#FFFFFF"></path>
                    </g>
                </g>
            </g>
        </g>
    </g>
</svg>