<?xml version="1.0" encoding="UTF-8"?>
<svg width="35px" height="32px" viewBox="0 0 35 32" version="1.1" xmlns="http://www.w3.org/2000/svg" xmlns:xlink="http://www.w3.org/1999/xlink">
    <title>icons8-badge</title>
    <g id="Page-1" stroke="none" stroke-width="1" fill="none" fill-rule="evenodd">
        <g id="Kuai2.0Site-Copy" transform="translate(-71.000000, -3535.000000)" fill="#B7B1D5" fill-rule="nonzero">
            <g id="FAQ" transform="translate(70.500000, 3282.000000)">
                <g id="icons8-badge" transform="translate(0.500000, 253.000000)">
                    <path d="M29.75,3.5 L21,3.5 L21,5.25 C21,6.216 20.216,7 19.25,7 L15.75,7 C14.784,7 14,6.216 14,5.25 L14,3.5 L5.25,3.5 C2.35025,3.5 0,5.85025 0,8.75 L0,26.25 C0,29.14975 2.35025,31.5 5.25,31.5 L29.75,31.5 C32.64975,31.5 35,29.14975 35,26.25 L35,8.75 C35,5.85025 32.64975,3.5 29.75,3.5 Z" id="Path" opacity="0.35"></path>
                    <path d="M19.25,7 L15.75,7 C14.784,7 14,6.216 14,5.25 L14,1.75 C14,0.784 14.784,0 15.75,0 L19.25,0 C20.216,0 21,0.784 21,1.75 L21,5.25 C21,6.216 20.216,7 19.25,7 Z" id="Path"></path>
                    <circle id="Oval" cx="10.5" cy="14" r="3.5"></circle>
                    <path d="M14.875,24.5 L6.125,24.5 C4.676,24.5 3.5,23.324 3.5,21.875 L3.5,21.875 C3.5,20.426 4.676,19.25 6.125,19.25 L14.875,19.25 C16.324,19.25 17.5,20.426 17.5,21.875 L17.5,21.875 C17.5,23.324 16.324,24.5 14.875,24.5 Z" id="Path"></path>
                    <path d="M29.75,12.25 L22.75,12.25 C21.784,12.25 21,11.466 21,10.5 L21,10.5 C21,9.534 21.784,8.75 22.75,8.75 L29.75,8.75 C30.716,8.75 31.5,9.534 31.5,10.5 L31.5,10.5 C31.5,11.466 30.716,12.25 29.75,12.25 Z" id="Path"></path>
                    <path d="M29.75,19.25 L22.75,19.25 C21.784,19.25 21,18.466 21,17.5 L21,17.5 C21,16.534 21.784,15.75 22.75,15.75 L29.75,15.75 C30.716,15.75 31.5,16.534 31.5,17.5 L31.5,17.5 C31.5,18.466 30.716,19.25 29.75,19.25 Z" id="Path"></path>
                    <path d="M29.75,26.25 L22.75,26.25 C21.784,26.25 21,25.466 21,24.5 L21,24.5 C21,23.534 21.784,22.75 22.75,22.75 L29.75,22.75 C30.716,22.75 31.5,23.534 31.5,24.5 L31.5,24.5 C31.5,25.466 30.716,26.25 29.75,26.25 Z" id="Path"></path>
                </g>
            </g>
        </g>
    </g>
</svg>