<svg xmlns="http://www.w3.org/2000/svg" width="29" height="28" viewBox="0 0 29 28">
  <path id="Shape" d="M12.595,27.909l-1.673-3.128,8.55.091L23.8,17.165l1.66,3.1L21.118,28Zm-.671-4.829-2.462-4.6,6.611.073,3.361-5.995,2.462,4.6-3.361,5.995ZM4.187,18.425,0,10.606,4.325,2.863l3.419.047L3.391,10.664l4.173,7.8Zm4.36-1.682L5.3,10.679,8.661,4.684l5.009.055L10.31,10.733,13.556,16.8Zm11.07-7.386L13.01,9.284l2.549-4.531,6.61.058,3.247,6.063-2.552,4.546Zm3.444-6.2-8.5-.091L16.291,0l8.522.091L29,7.915l-1.739,3.092Z" fill="#fff"/>
</svg>
