<svg id="twitter.1528353b" xmlns="http://www.w3.org/2000/svg" width="25.5" height="21" viewBox="0 0 25.5 21">
  <path id="Path" d="M8.02,21c9.622,0,14.886-8.08,14.886-15.087,0-.23,0-.459-.015-.686A10.708,10.708,0,0,0,25.5,2.483a10.312,10.312,0,0,1-3,.835A5.315,5.315,0,0,0,24.8.384a10.4,10.4,0,0,1-3.323,1.287,5.189,5.189,0,0,0-7.4-.23,5.355,5.355,0,0,0-1.513,5.067A14.794,14.794,0,0,1,1.775.968,5.349,5.349,0,0,0,3.4,8.046,5.14,5.14,0,0,1,1.02,7.383V7.45a5.288,5.288,0,0,0,4.2,5.2,5.138,5.138,0,0,1-2.361.09A5.246,5.246,0,0,0,7.743,16.42a10.408,10.408,0,0,1-6.5,2.274A10.585,10.585,0,0,1,0,18.618,14.672,14.672,0,0,0,8.02,21" fill="#fff"/>
</svg>
